<svg width="212" height="212" viewBox="0 0 212 212" fill="none" xmlns="http://www.w3.org/2000/svg">
<rect width="41.691" height="61.1475" transform="matrix(0.937777 -0.347239 0.359014 0.933332 26.0425 26.2029)" fill="#F38911"/>
<rect width="31.9212" height="61.2576" transform="matrix(0.887939 0.459961 -0.47387 0.880595 149.297 8)" fill="#F38911"/>
<path d="M210.554 3.00601C211.219 1.67728 210.254 0.113284 208.768 0.111199L131.255 0.00240209C130.275 0.00102685 129.438 0.709681 129.279 1.67638L107.973 130.628C107.604 132.86 104.396 132.86 104.027 130.628L82.7214 1.67638C82.5617 0.709683 81.7252 0.00102477 80.7454 0.00239993L3.2318 0.11119C1.74607 0.113275 0.781226 1.67728 1.44595 3.00601L104.211 208.425C104.949 209.898 107.051 209.898 107.789 208.425L210.554 3.00601ZM149.832 24.7306C150.027 23.8052 150.844 23.1429 151.789 23.1429L172.54 23.1429C174.144 23.1429 175.096 24.9377 174.195 26.2657L144.097 70.6301C142.866 72.4451 140.033 71.2411 140.485 69.095L149.832 24.7306ZM37.8053 26.3814C36.9044 25.0534 37.8556 23.2586 39.4603 23.2586L60.2108 23.2586C61.1565 23.2586 61.9729 23.9209 62.1679 24.8463L71.5149 69.2107C71.9671 71.3568 69.1341 72.5608 67.9028 70.7459L37.8053 26.3814Z" fill="#0ECC6D"/>
</svg>
